<?xml version="1.0" encoding="UTF-8"?><svg id="Layer_1" xmlns="http://www.w3.org/2000/svg" viewBox="0 0 420.4 150.6"><defs><style>.cls-1{fill:#231f20;}</style></defs><g><path class="cls-1" d="M231.2,100.4c0,25.8-19.6,44.6-45,44.6s-45-18.8-45-44.6,19.6-44.4,45-44.4,45,18.4,45,44.4Zm-20,.2c0-19.2-12.6-27-25-27s-25,7.8-25,27c0,16.2,9.6,26.8,25,26.8s25-10.6,25-26.8Z"/><path class="cls-1" d="M262.4,58.2l21.6,48,21.6-48h22l-43.6,90.2-43.6-90.2h22Z"/><path class="cls-1" d="M400.8,58.2h19.6v84.2h-19.6v-8.8c-8.6,10-19.2,11.4-25.2,11.4-26,0-40.8-21.6-40.8-44.8,0-27.4,18.8-44.2,41-44.2,6.2,0,17,1.6,25,12v-9.8Zm-46,42.4c0,14.6,9.2,26.8,23.4,26.8,12.4,0,23.8-9,23.8-26.6s-11.4-27.2-23.8-27.2c-14.2,0-23.4,12-23.4,27Z"/></g><polygon class="cls-1" points="96.8 9 96.8 80.92 96.84 80.92 96.84 129.28 117.2 150.6 117.2 9 96.8 9"/><g><polygon class="cls-1" points="20.41 21.38 0 0 0 142.4 20.4 142.4 20.4 49.2 20.41 49.21 20.41 21.38"/><polygon class="cls-1" points="30.42 31.87 30.42 59.7 86.48 118.42 86.48 90.59 30.42 31.87"/></g></svg>