<?xml version="1.0" encoding="UTF-8"?><svg id="Layer_1" xmlns="http://www.w3.org/2000/svg" viewBox="0 0 1120.63 401.44"><defs><style>.cls-1{fill:#57bd82;}</style></defs><g><path class="cls-1" d="M616.29,267.63c0,68.77-52.25,118.89-119.95,118.89s-119.95-50.11-119.95-118.89,52.25-118.35,119.95-118.35,119.95,49.05,119.95,118.35Zm-53.31,.53c0-51.18-33.59-71.97-66.64-71.97s-66.64,20.79-66.64,71.97c0,43.18,25.59,71.44,66.64,71.44s66.64-28.25,66.64-71.44Z"/><path class="cls-1" d="M699.46,155.14l57.58,127.95,57.58-127.95h58.64l-116.22,240.44-116.22-240.44h58.64Z"/><path class="cls-1" d="M1068.39,155.14h52.25v224.45h-52.25v-23.46c-22.92,26.66-51.18,30.39-67.18,30.39-69.3,0-108.76-57.57-108.76-119.42,0-73.04,50.11-117.82,109.29-117.82,16.53,0,45.32,4.26,66.64,31.99v-26.12Zm-122.62,113.02c0,38.92,24.52,71.44,62.37,71.44,33.05,0,63.44-23.99,63.44-70.91s-30.39-72.5-63.44-72.5c-37.85,0-62.37,31.99-62.37,71.97Z"/></g><polygon class="cls-1" points="258.03 23.99 258.03 215.7 258.15 215.7 258.15 344.61 312.41 401.44 312.41 23.99 258.03 23.99"/><g><polygon class="cls-1" points="54.4 56.99 0 0 0 379.58 54.38 379.58 54.38 131.15 54.4 131.17 54.4 56.99"/><polygon class="cls-1" points="81.1 84.96 81.1 159.14 230.52 315.66 230.52 241.48 81.1 84.96"/></g></svg>